<?xml version="1.0" encoding="UTF-8" standalone="no"?>
<!-- Created with Inkscape (http://www.inkscape.org/) -->
<svg
   xmlns:dc="http://purl.org/dc/elements/1.1/"
   xmlns:cc="http://creativecommons.org/ns#"
   xmlns:rdf="http://www.w3.org/1999/02/22-rdf-syntax-ns#"
   xmlns:svg="http://www.w3.org/2000/svg"
   xmlns="http://www.w3.org/2000/svg"
   xmlns:sodipodi="http://sodipodi.sourceforge.net/DTD/sodipodi-0.dtd"
   xmlns:inkscape="http://www.inkscape.org/namespaces/inkscape"
   width="744.09448"
   height="630"
   id="svg2"
   sodipodi:version="0.32"
   inkscape:version="0.46"
   version="1.0"
   sodipodi:docname="Glagolitic mislete.svg"
   inkscape:output_extension="org.inkscape.output.svg.inkscape">
  <defs
     id="defs4">
    <inkscape:perspective
       sodipodi:type="inkscape:persp3d"
       inkscape:vp_x="0 : 526.18109 : 1"
       inkscape:vp_y="0 : 1000 : 0"
       inkscape:vp_z="744.09448 : 526.18109 : 1"
       inkscape:persp3d-origin="372.04724 : 350.78739 : 1"
       id="perspective10" />
  </defs>
  <sodipodi:namedview
     id="base"
     pagecolor="#ffffff"
     bordercolor="#666666"
     borderopacity="1.0"
     gridtolerance="10000"
     guidetolerance="10"
     objecttolerance="10"
     inkscape:pageopacity="0.0"
     inkscape:pageshadow="2"
     inkscape:zoom="0.35"
     inkscape:cx="587.45097"
     inkscape:cy="177.14286"
     inkscape:document-units="px"
     inkscape:current-layer="layer1"
     showgrid="false"
     inkscape:window-width="1280"
     inkscape:window-height="738"
     inkscape:window-x="-8"
     inkscape:window-y="-8" />
  <metadata
     id="metadata7">
    <rdf:RDF>
      <cc:Work
         rdf:about="">
        <dc:format>image/svg+xml</dc:format>
        <dc:type
           rdf:resource="http://purl.org/dc/dcmitype/StillImage" />
      </cc:Work>
    </rdf:RDF>
  </metadata>
  <g
     inkscape:label="Layer 1"
     inkscape:groupmode="layer"
     id="layer1">
    <path
       style="fill:#000000;stroke-width:42;stroke-miterlimit:4;stroke-dasharray:none"
       d="M 221.49273,601.62577 C 193.18153,596.93894 161.44196,574.86034 144.0475,547.75346 C 130.64545,526.86817 124.01625,502.8478 124.0563,475.31689 C 124.11622,434.18409 136.25887,404.25317 164.32525,376.05697 C 186.57502,353.70417 207.66016,343.8928 237.44159,342.03417 L 260.87979,340.57143 L 276.22576,321.28843 C 321.34599,264.59234 345.03336,192.08863 335.97162,138.41446 C 329.79379,101.82257 322.88933,97.151141 263.16799,89.157431 L 249.45645,87.322171 L 257.82385,103.94677 C 269.6105,127.3648 273.51367,147.98111 272.13379,179.53117 C 271.09256,203.3378 269.72779,209.06889 260.44547,228.61486 C 247.65436,255.54914 226.77565,277.454 202.59382,289.30966 C 187.08845,296.91149 182.71607,297.71429 156.81945,297.71429 C 130.32093,297.71429 126.7899,297.02603 109.42099,288.47534 C 85.605313,276.75097 63.846563,254.08569 51.901423,228.55951 C 43.917253,211.49789 42.783623,205.83869 41.736933,177.82086 C 40.734363,150.98317 41.479313,143.5676 46.738133,128.03837 C 61.801963,83.555341 95.251963,50.688631 134.38665,41.918371 C 145.56099,39.414111 168.73959,40.802861 259.63193,49.422311 L 371.16525,59.999171 L 474.02244,47.883511 C 562.79384,37.427031 581.12354,36.044171 607.87024,37.785681 C 635.22574,39.566831 641.15154,40.949461 658.38914,49.573061 C 734.87784,87.838861 750.82464,201.28474 688.47854,263.63086 C 621.45964,330.6498 513.38904,292.1466 495.14824,194.75149 C 488.93854,161.59483 496.86504,118.84266 514.03184,92.901881 C 522.73984,79.743031 523.59984,79.912141 480.72444,86.351911 C 447.74134,91.305941 434.92914,96.409711 426.79304,107.83569 C 408.44994,133.59631 416.52984,195.8114 445.80634,254.23651 C 458.81734,280.20183 483.25434,317.97089 496.60274,332.74594 C 506.55434,343.76134 507.33514,344.0642 526.13784,344.2048 C 554.77384,344.41897 574.64064,352.92706 598.03384,374.99506 C 628.61144,403.84026 641.06714,432.42177 641.13134,473.88831 C 641.19334,513.96577 627.81894,544.06089 597.22944,572.67591 C 574.71214,593.73969 554.65584,602.23969 526.85414,602.50129 C 492.78894,602.8218 470.49954,594.00863 445.44384,570.31194 C 419.60814,545.87771 406.87954,513.90006 406.87954,473.42857 C 406.87954,425.20837 426.33684,386.74946 463.25814,361.99151 C 469.60124,357.73803 469.49814,357.55514 444.68674,329.08283 C 430.96414,313.33549 413.35474,290.51351 405.55454,278.36723 C 388.81622,252.30289 383.65116,249.59734 372.36187,260.98071 C 361.77113,271.65974 301.24807,354.01269 301.27019,357.71429 C 301.27956,359.28571 306.30516,364.12043 312.43816,368.45811 C 326.40853,378.33889 345.44959,406.523 351.21825,425.85926 C 357.7979,447.91386 359.63742,479.0118 355.58545,499.6882 C 350.62239,525.0138 340.26736,545.27231 322.44707,564.52037 C 294.64207,594.55297 258.65907,607.77846 221.49282,601.62574 L 221.49273,601.62577 z M 256.87953,558.8518 C 264.51253,556.7704 273.24107,550.67831 283.16145,540.50837 C 302.8155,520.35983 311.31465,494.81606 308.91625,463.10354 C 305.29485,415.21969 277.54427,382 241.16525,382 C 173.96522,382 146.3033,493.81386 200.64299,545.79737 C 215.56622,560.07354 235.4619,564.69197 256.87953,558.85177 L 256.87953,558.8518 z M 549.48274,554.98846 C 562.58354,548.21377 575.81614,533.2904 583.78524,516.30311 C 590.25304,502.51583 591.16524,496.86346 591.16524,470.57143 C 591.16524,443.14166 590.46584,439.22511 583.00104,424.85714 C 567.64444,395.29871 549.34304,382 524.02244,382 C 497.84604,382 479.02704,396.40006 464.28004,427.71429 C 457.85524,441.35677 456.87954,447.2034 456.87954,472.06009 C 456.87954,498.70989 457.53584,502.02469 466.36134,519.95189 C 476.62624,540.803 489.06584,552.82374 506.10374,558.35626 C 518.76194,562.46654 537.89394,560.98126 549.48274,554.98846 L 549.48274,554.98846 z M 183.77685,250.69671 C 211.40827,236.6002 230.54936,192.93823 225.58487,155.32997 C 219.53905,109.5298 192.71473,79.142861 158.33016,79.142861 C 139.37413,79.142861 127.08522,84.551711 112.95076,99.116281 C 96.193713,116.38331 88.680853,137.72303 88.800163,167.71429 C 88.955083,206.66917 103.86853,237.07543 129.4519,250.59726 C 143.49036,258.01717 169.33485,258.06446 183.77682,250.69671 L 183.77685,250.69671 z M 633.52714,249.53391 C 646.76144,244.00426 665.63944,221.3398 672.76954,202.42026 C 680.67374,181.44669 679.50144,142.04054 670.36264,121.51523 C 641.35484,56.365371 565.36544,63.738631 545.65144,133.616 C 532.99824,178.46611 549.10204,230.19223 580.90034,246.83714 C 595.48144,254.46971 618.84844,255.66709 633.52714,249.53394 L 633.52714,249.53391 z"
       id="path2749" />
  </g>
</svg>
